<mxfile host="app.diagrams.net" modified="2023-07-12T23:42:47.621Z" agent="Mozilla/5.0 (Windows NT 10.0; Win64; x64) AppleWebKit/537.36 (KHTML, like Gecko) Chrome/114.0.0.0 Safari/537.36" version="21.4.0" etag="E4Ad6t1EMylvONJ25c7u" type="github">
  <diagram name="Page-1" id="pmoyyD1UTvwdsH77ybAz">
    <mxGraphModel>
      <root>
        <mxCell id="0" />
        <mxCell id="1" parent="0" />
      </root>
    </mxGraphModel>
  </diagram>
</mxfile>
